<?xml version="1.0" encoding="UTF-8"?>
<svg id="Layer_1" xmlns="http://www.w3.org/2000/svg" xmlns:xlink="http://www.w3.org/1999/xlink" version="1.1" viewBox="0 0 4000 4000">
  <!-- Generator: Adobe Illustrator 29.6.0, SVG Export Plug-In . SVG Version: 2.1.1 Build 207)  -->
  <defs>
    <style>
      .st0 {
        fill: none;
      }

      .st1 {
        fill: #e6e6e6;
      }

      .st2 {
        clip-path: url(#clippath);
      }
    </style>
    <clipPath id="clippath">
      <rect class="st0" x="193.25" y="-88" width="2287.31" height="4352"/>
    </clipPath>
  </defs>
  <g class="st2">
    <path class="st1" d="M1008.88,1579.34c14.35.06,29.79,1.87,43.42-3.64,6.03-2.44,11.72-5.63,17.66-8.28,6.58-2.94,13.35-5.47,20.13-7.91,14.41-5.18,29.04-9.77,43.28-15.44,5.92-2.36,11.64-4.62,17.93-5.87,7.18-1.42,14.49-1.88,21.75-2.72,6.82-.79,13.68-1.71,20.26-3.7s13.25-5.42,19.83-8.19c12.01-5.06,24.68-8.09,36.95-12.39,3.88-1.36,9.12-4.08,13.26-3.95,2.8.08,5.15,3.66,6.8,5.86,6.45,8.59,11.7,16.58,23.67,16.79s23.4-8.81,30.83-17.98c8.25-10.19,13.51-24.03,15.44-36.95,1.07-7.15.59-14.32.98-21.51.24-4.48.68-10.1,3.74-13.72,4.42-5.22,13.95-3.72,20.22-3.23,8.29.65,17.02,1.74,25.11-.81,9.02-2.84,16.14-10.13,20.78-18.14,10.13-17.49,10.44-38.25,17.32-56.88,4.16-11.26,11.84-20.83,15.03-32.57,3.71-13.64,2.42-29.44,1.28-43.38-.31-3.8-.83-8.58-.77-11.66-.02,1.08-2.36.29-.21.6.77.11,2.07-.44,2.78-.69,3.41-1.17,6.24-3.72,8.63-6.34,8.02-8.77,8.82-18.95,9.01-30.28.23-13.9,3.75-27.72,6.12-41.37,2.6-14.96,3.57-30.21,6.28-45.12,1.34-7.38,3.54-14.46,5.52-21.67,2.12-7.74,2.69-15.77,4.4-23.6,1.36-6.26,3.9-12.14,5.37-18.38,1.62-6.91,2.61-14,4.87-20.74,1.46-4.36,3.47-7.66,7.18-10.38,3.42-2.51,7.04-4.61,9.49-8.19,2.86-4.18,3.73-9.27,3.37-14.26-.53-7.4-4.62-13.56-5.83-20.73-1.03-6.09.08-12.57.22-18.69.17-7.24-.74-14.47-.34-21.71.68-12.34,9.55-21.03,19.01-27.98s20.91-12.92,31.3-19.49c4.5-2.85,8.81-5.93,12.98-9.23,5.25-4.16,11.11-7.19,16.95-10.43,5.37-2.99,10.97-6.25,15.26-10.72s6.29-10.62,9.91-15.76,8.51-8.53,12.69-12.78c5.29-5.37,8.65-11.68,12.16-18.28,3.21-6.05,6.41-12.1,9.97-17.95,3.76-6.18,9.05-11.71,11.45-18.63,2.1-6.05,0-11.86,1.11-17.87.76-4.14,5.39-6.13,8.88-7.72,9.67-4.41,20.48-7.02,30.99-8.14,6.44-.69,13.06-1.26,19.2-3.46s10.39-5.87,14.74-10.51c4.64-4.95,9.07-7.05,15.47-9.15,7.8-2.55,15.41-5.66,23.19-8.26,12.21-4.07,25.04-6.31,36.83-11.59s17.78-13.78,21.87-25.42c3.72-10.58,7.84-20.26,13.95-29.73,4.46-6.9,10.49-14.35,19.36-14.73,4.98-.21,10.93,1.52,14.81,4.67s5.45,8.07,6.87,12.61c1.74,5.56,3.34,10.87,7.03,15.51s8.45,7.65,13.78,9.87c10.2,4.25,22.12,6.4,33.1,7.12,13.51.88,27.03-.74,40.5-1.42,15.07-.76,30.29-.09,45.3,1.27,6.74.61,13.46,1.41,20.16,2.43,3.16.48,6.1,1,9.04,2.28,3.29,1.43,6.46,3.17,10,3.95,6.12,1.35,12.18-.19,18.33-.13,7.01.08,13.8,2.05,20.63,3.42,15.46,3.11,31.55,2.41,47.24,2.21,15.19-.2,30.4-.18,45.56-.98,5.78-.31,12.91-1.14,18.33,1.45,2.96,1.42,3.97,4.3,5.11,7.21,4.04,10.35,10.3,19.83,22.07,22,5.96,1.1,11.88-.07,17.84.51s10.43,4.77,15.73,7.21c6.28,2.9,12.88,2.98,19.61,3.75s12.15,3.69,16.99,7.95c8.24,7.25,13.54,16.89,19.48,25.96,6.7,10.23,14.46,18.97,24.12,26.49,10.88,8.47,23,15.05,36.02,19.62,12.6,4.42,25.74,5.31,38.67,8.31,6.88,1.59,13.58,2.52,20.63,2.85,6.43.3,12.52,1.8,18.76,3.27,6.6,1.55,13.14,2.78,19.94,2.78,7.32,0,14.61-.98,21.93-.98,6.18,0,12.03,1.35,18.02,2.7,7.06,1.59,13.98,1.98,21.13,2.82,9.21,1.08,14.05,7.29,20.78,12.94,4.61,3.87,9.86,5.85,15.35,8.12,5.12,2.11,7.77,4.79,10.64,9.46,5.17,8.43,12.61,14.87,23.06,14.9,14.39.04,21.8-14.61,26.9-25.87,2.6-5.75,4.95-11.71,8.32-17.08.37-.58.74-1.16,1.14-1.72,1.24-1.75-.88.93.48-.62.36-.41,2.75-2.84,1.58-1.71.32-.31.97-.7,1.4-.85-1.73.64-.03.02.29-.05,1.77-.41-1.61.13.24-.04,1.55-.14.48,0,.7.03,1.54.26,3.84,1.16,4.97,3.49,1.86,3.85,1.38,9.06,1.18,13.17-.48,9.75-2.77,19.82.72,29.3,4.01,10.91,14.1,16.54,20.86,25.41,7.11,9.33,6.6,19.96,7.81,31.05,2.1,19.13,7.04,43.56,28.67,48.72,11.7,2.79,23.61-.25,34.72-4,5.54-1.87,11.01-3.96,16.65-5.53s11.08-1.78,16.86-2.49c14.3-1.75,27.8-6.6,41.63-10.37s26.99-4.71,41.17-3.68,26.18,5.32,38.39,12.28c6.03,3.43,12.08,6.98,18.59,9.45s13.91,3.2,21.07,3.18c5.74,0,11.7-.58,17.41.27,1.65.25,3.24.55,4.6,1.47-.12-.08.05.09.05.71,0,.44.17,1.82.17,3.42,0,1.81-.1,3.62-.09,5.42,0,4.58.48,9.16,1.7,13.59.62,2.24,2.58,4.48,4.95,4.95,12.03,2.37,23.17,7.92,35.22,10.14,4.63.85,10.02.57,14.2,3.01,2.7,1.57,4.45,4.19,6.22,6.68,5.39,7.58,11,14.15,20.39,16.49s19.19,1.48,28.04-1.23,15.29-8.24,23.32-11.78c1.53-.68,1.42-.75,3.91.25,4.76,1.91,9.12,5.53,13.29,8.43,9.3,6.46,18.75,13.39,24.38,23.47s7.24,21.4,10.98,31.99c3.99,11.31,12.41,21.65,13.49,33.8s2.29,25.24-.37,37.07l10.41-4.24c-10.59-4.6-23.69-4.49-31.09,5.66-8.82,12.08-1.68,24.97,4.85,36.06,7.2,12.23,14.6,24.21,16.18,38.61.63,5.7,1.53,11.29,4.83,16.12,3.53,5.16,8.4,9.14,12.28,14.01,8.15,10.23,11.73,24.51,12.89,37.28.71,7.79.65,15.63.56,23.45-.08,6.87-.64,14.05,1.41,20.72s6,11.48,9.78,16.96c4.09,5.93,5.21,12.67,6.55,19.64,1.45,7.51,2.63,14.52,2.25,22.18s1.07,14.38,5.08,21.14c1.86,3.13,4.11,6.16,5.34,9.61s1.67,7.48,2.22,11.2c1.1,7.38,2.16,15.25,6.94,21.28,3.27,4.13,9.46,6.47,11.22,11.6,2.73,7.97,3.68,17.08,5.04,25.37l3.26-8c-10.24,6.46-24.18,2.35-33.14,11.9-7.61,8.1-6.8,20.32-6.06,30.58.83,11.35,1.2,22.3,11.36,29.57,3,2.15,7.6,3.46,9.94,6.28-.93-1.12-.08-.23.04.56s.33,1.56.44,2.35c.24,1.8.34,4.23.42,6.27.26,6.95,1.06,16.59-1.21,22.43-3.09,7.96-15.75,11.22-22.65,14.58-8.46,4.12-17.57,10.28-23.04,18.08s-5.9,18.61-5.42,28.08,3.53,18.09,12.53,23.12c4.49,2.51,9.51,4.5,14.5,5.71,2.35.57,5.64.8,7.71,2.12.26.16,1,.72,1.33.92.28.44.47.91.59,1.42,6.1-6.38,7.68-9.02,4.75-7.94-4.85,1.78-7.18,7.87-3.13,11.85,2.1,2.07,4.26,2.22,7.04,2.37,1.22.07,2.55.21,3.77.17,1.44-.05.28-.3.64.15,0,0-3.06-1.51-2.14-1.15l-.75-.97c.42.59.87,1.16,1.34,1.71,1.37,1.44,3.09,2.48,4.85,3.34,11.78,5.78,25.36,6.46,37.21,12.21,15.97,7.74,36.42,11.03,49.61,23.54,12.61,11.96,7.94,31.27,15.5,45.87,4.22,8.15,12.13,12.49,21.21,9.91,4.72-1.34,9.01-4.44,13.86-5.3,5.38-.95,11.6.86,16.68,2.53,11.9,3.9,20.18-4.5,28.45-11.93s24.03-8.14,34.49-5.09l-4.95-4.95c2.86,15.07-5.62,26.05-11.22,39.11-5.28,12.3-4.09,26.43-3.79,39.51.33,14.48,3.15,28.46,11.43,40.59,7.08,10.36,13.33,19.24,14.5,32.12,1.05,11.66,1.77,26.05-3.8,36.78-5.36,10.33-18.76,13.09-25.92,21.99-6.45,8.01-7.76,19.08-8.15,29.02-.44,10.98.6,21.95,1.3,32.89.79,12.37.55,24.46,3.79,36.58,3.96,14.83,10.88,28.76,18.16,42.19,6.68,12.33,17.13,21.6,24.43,33.43,4.67,7.57,8.59,14.22,17.74,16.76,8.73,2.42,18.87.95,24.96,9.12,4.61,6.19,4.08,14.8,1.14,21.6-3.93,9.06-11.25,14.02-19.76,18.25-11.2,5.56-20.86,12.45-20.67,26.27.17,12.31,6.33,24.25,9.01,36.16,3,13.29,5.46,27.22,3.89,40.88-1.37,11.94-9.07,21.52-10.79,33.26-1.04,7.1-.47,14.33-1.36,21.45-.76,6.05-2.96,11.52-4.64,17.32-1.31,4.53-2.07,9.25-3.82,13.65-.51,1.29-1.97,2.92-2.24,4.12.1-.45.09.83-.34.22-.15-.21,2.71.48,1.91.22.21.07-.02-.25.31.34-.32-.57-.73-1.09-1.06-1.66-.79-1.35-1.5-2.76-2.3-4.1-2.01-3.39-4.51-6.59-7.96-8.6-9.14-5.31-22.83-1.11-28.09,7.8-2.49,4.22-3.02,9.08-4.45,13.68-1.54,4.94-4.92,8.18-9.21,10.91-5.25,3.35-10.99,5.9-16.08,9.5-5.68,4.02-9.94,9.25-14.8,14.15-2.17,2.19-4.48,4.49-7.28,5.86-2.41,1.18-5.15,1.71-7.67,2.64-5.2,1.92-10.18,4.6-12.76,9.76-4.06,8.12-3.16,19.53-2.61,28.31.6,9.37,2.06,17.62,7.37,25.55,5.93,8.85,14.05,15.98,19.95,24.83,2.66,4,4.94,8.37,5.47,13.21.65,6.06-1.47,12.21-3.5,17.82-2.37,6.55-5.55,12.68-8.55,18.95-3.17,6.62-5.35,13.52-7.17,20.62-2.59,10.13-5.48,21.21-12.38,29.43-2.64,3.15-8.98,2.02-13.47,1.55-6.45-.67-12.89-.99-18.96,1.73s-10.19,7.5-12.25,13.55c-1.93,5.67-1.33,11.82-2.89,17.57-3.65,13.42-17.36,11.7-28.29,13.01-10.21,1.22-23.78,3.35-31.46,10.8-5.14,4.98-5.01,10.7-4.4,17.31s-4.46,12.86-7.2,18.67c-6.47,13.73-12.23,28-14.43,43.1-1.12,7.66-1.47,15.35-.59,23.06.73,6.36,1.48,14.25,6.2,19.09,3.68,3.78,8.62,4.39,13.59,3.51,3.04-.54,7.46-2.67,10.49-1.3,2.79,1.26,2.99,5.83,3.11,8.61.21,4.86-.35,9.66-1.73,14.32l4.95-4.95c-9.84,2.51-22.26,2.52-32.82,1.7-2.22-.17-3.51-.42-5.69-.94-.99-.24.04-.03.07.03.18.35-1.02-1.92-1.25-2.41-2.31-4.99-3.66-10.47-7.71-14.45-4.91-4.81-12.43-5.25-18.08-1.49s-9.14,11.18-10.33,17.78c-2.87,15.8,11.82,33.4,2.35,47.97-8.75,13.45-21.44,26.63-38.03,28.7-8.71,1.08-17.53.11-26.26.93-9.62.91-18.91,3.67-26.54,9.8-11.71,9.41-17.64,26.51-14.91,41.17,3.04,16.32,19.08,24.11,27.4,37.15,4.8,7.53,2.98,13.51-2.18,20.26-2.61,3.42-5.47,7.06-8.64,9.98s-6.79,4.55-10.44,6.36c-7.51,3.72-14.81,8.33-18.7,16.07-3.5,6.96-4.22,14.92-8.23,21.62-4.21,7.03-10.07,13.11-16.26,18.41-6.59,5.65-13.98,9.17-21.64,13.1-9.17,4.7-18.08,9.87-27.18,14.71-8.33,4.43-17.61,7.66-25.26,13.22-7.01,5.1-12.96,11.35-19.47,17.03-6.58,5.75-13.91,9.78-22.34,12.13-16.55,4.61-34,.8-49.83,8.11-7.56,3.49-15.09,7.62-22.34,11.72-7.51,4.24-14.69,9.49-22.73,12.71-8.17,3.27-17.24,3.28-25.7,5.51-8.05,2.12-15.76,6.05-21.78,11.86-4.81,4.65-8.25,10.61-13.33,14.99-5.63,4.86-13.64,5.82-20.84,5.88-7.83.06-15.85-1.73-22.04-6.77s-9.58-12.74-16.43-17.03c-7.7-4.82-15.97-3.51-24.53-3.07s-17.63-.68-26.39-1.03c-8.93-.36-18.1-.33-26.83,1.81-8.64,2.12-14.51,7.78-21.54,12.77-7.4,5.25-15.19,5.99-23.94,6.85-9.06.89-17.67,2.56-25.61,7.29-4.99,2.97-7.33,7.19-10.45,11.88-4.1,6.16-9.49,11.77-16.42,14.68s-14.01,2.95-20.75.37-12.31-6.45-19.19-7.91c-18.13-3.83-35.93,7.95-53.89,4.11-8.4-1.8-15.37-5.82-24.28-5.43-4.51.2-9.18,1.28-13.69.72s-8.85-2.93-12.82-5.08c-8.26-4.46-16.06-9.76-24.78-13.34-8.37-3.44-16.73-3.8-25.64-2.82-7.81.87-17.78,3.5-25.37.38-6.25-2.57-10.21-9.13-15.96-12.59-7.17-4.31-15.29-3.57-23.27-2.83-9.73.9-19.53.2-29.28.08-10.01-.12-20.24-.25-29.96,2.48-8.84,2.48-17.09,6.85-24.9,11.58-7.04,4.26-12.5,6.34-20.5,3.56-6.74-2.34-14.45-5.23-20.16-9.57-10.83-8.24-20.82-23.11-36.07-22.34-6.8.34-12.75,3.67-19.33,4.87-6.39,1.16-7.5-4.63-8.53-10.03-1.79-9.48-2.65-18.14-7.18-26.86s-9.67-17.28-10.97-27.41c-1.28-9.95,1.37-19.08,5.06-28.22,3.79-9.38,8.11-18.54,12.58-27.61,4.2-8.53,8.04-17.71,13.57-25.47s8.69-14.55,10.27-23.93c.73-4.32,1.35-8.78,3.43-12.7s5.13-6.78,8-9.89,5.48-6.13,7.53-9.66c2.47-4.25,3.43-8.85,4.85-13.48,2.17-7.06,8.73-11.3,10.75-18.63,2.31-8.39,1.41-17.17-1.65-25.24-3.02-7.93-7.61-15.08-11-22.83-.23-.53-1.15-3.18-1.62-4.99-.67-2.57-1.18-5.2-1.46-7.84-.7-6.55-1.1-22.62,7.15-23.27.81-.06.56-.13,1.89.45.09.04,1.74.98,2.22,1.28,2.22,1.35,4.26,2.97,6.35,4.51,4.31,3.19,9.16,6.73,14.77,6.77,15.33.11,17.21-20.43,14.82-31.41-3.24-14.87-12.26-27.66-22.02-38.95-5.51-6.38-9.76-13.74-12.59-21.67-3.05-8.56-4.51-17.61-8.01-26.01-4.94-11.87-3.97-35.33-21.93-36.22-13.61-.68-21.44,15.8-27.35,25.58s-9.12,22.43-17.14,30.93c-10.4,11.03-23.94,1.27-34.25-4.67-16.02-9.24-34.09-8.2-51.95-6.73-17.66,1.45-36.65,4.22-53.65-2.32s-29.75-17.19-47.9-17.65c-20.95-.53-41.93.28-62.87.52-8.03.09-14.78-.54-21.53-5.01-7.93-5.25-16-9.28-25.12-12.07-9.13-2.8-18.16-5.21-26.99-8.89-7.53-3.14-14.91-5.04-23.12-5.18-4.86-.08-9.7.42-14.56.39s-9.69-1.14-14.48-2.8c-9.18-3.18-17.84-7.75-27.14-10.59-16.97-5.17-34.29-2.49-50.5,3.93s-30.55,14.92-47.02,19.33c-6.52,1.74-13.08,3.38-17.75,8.63-2.55,2.87-4.47,6.18-5.68,9.83-.66,1.99-.69,5.76-2.3,7.19-3.62,3.21-8.86-.2-11.45-2.8-3.79-3.8-6.57-8.46-10.32-12.28-4.34-4.41-9.56-6.8-15.82-6.56-3.81.15-13.32,3.5-16.25.05-1.64-1.92-1.01-5.95-1.04-8.27-.05-3.76-.08-7.72-1.29-11.32-2.31-6.88-7.26-12.63-14.22-14.98-13.05-4.4-27.26,3.26-39.35,7.38-9.16,3.12-18.57,5.47-28,7.59-8.7,1.95-17.82,4.79-26.78,4.41-8.18-.35-16.59-.99-23.02,5.08-5.18,4.89-6.3,11.96-9.99,17.76-7.66,12.07-22.12,10.66-34.13,7.27-13.66-3.85-26.45-10.66-40.36-13.65-8.05-1.73-16.32-2-24.39-3.58-8.36-1.64-14.88-5.36-21.23-10.96-6.48-5.7-12.9-11.67-21.07-14.82-8.59-3.32-17.9-.55-26.44-4.02-12.86-5.24-20.38-18.48-31.21-26.61-14.41-10.82-33.44-12.7-50.14-18.16-18.22-5.96-35.21-16.16-51.16-26.63-8.02-5.27-15.86-10.8-23.67-16.36-5.92-4.21-13.63-7.96-17.56-14.06-3.25-5.04-5.92-10.74-10.6-14.67-5.85-4.92-13.73-5.78-20.34-1.71-5.41,3.32-8.41,8.87-15.24,9.22-4.92.25-6.14-2.32-5.06-6.95,1.4-6.04,5.95-9.35,8.7-14.56,3.6-6.79,1.03-14.88-2.67-21.07-4.34-7.25-9.99-11.63-11-20.52s.29-17.6-1.11-26.37c-2.48-15.6-15.54-26.67-18.16-42.39-2.11-12.62,3.83-28.82-6.79-38.66-2.6-2.41-5.68-4.47-8.88-5.96-2.13-.99-5.34-1.45-7.14-3-5.35-4.61.47-16.11,1.4-21.56,3.12-18.3-9.62-31.22-14.02-47.86-1.89-7.15-1.46-16.03,3.55-21.83,4.21-4.88,9.11-8.87,10.73-15.45,2.5-10.18-2.46-28.75-13.1-32.83-8.44-3.23-13.46,2.59-20.49,5.81-6.55,3.01-15.53,2.04-22.37.65l5.2,6.83c.6-7.22,7.09-17.55,12-23.73,2-2.53,3.06-4,3.09-7.36.02-1.95.03-3.59.58-5.47,1.03-3.54,3.24-6.7,5.52-9.54,5.69-7.07,12.83-13.28,16.66-21.68,4.93-10.83,1.22-19.91-1.84-30.66-1.65-5.78-.85-10.25,2.61-15.15,2.72-3.85,5.77-7.22,7.06-11.9,1.42-5.14,1.05-13.96-3.91-17.1-5.49-3.47-14.06-2.27-19.69.02-5.27,2.15-9.78,5.62-13.96,9.44-3.95,3.61-8.88,8.05-11.65,12.67l.3-.18c-1.95.4-1.49.64,1.38.73-.44.15-.14-.26-1.56-1.14-2.04-1.26-4.13-2.04-6.54-2.19-5.05-.32-10.45,1.41-13.89,5.22-3.23,3.57-3.88,8.09-4.5,12.66-.43,3.17-.35,5.87-3.59,7.11-3.4,1.31-8.71,1.19-12.01-.42-2.7-1.32-3.08-5.23-3.8-8.35-2.07-8.98-4.62-19.38-15-21.68-9.69-2.14-15.98,5.22-17.47,14.06-1.41,8.37-.16,16.83-.37,25.25-.15,6.18-1.41,11.97-3.97,17.62-.9,1.98-1.89,3.96-3.14,5.75-.64.92-1.03,1.2-2.58,1.94-1.77.84-6.65,1.87-9.52,2.64-5.51,1.5-10.82,3.57-16.24,5.36-8.84,2.92-17.07,4.82-22.33-4.47-7.77-13.73-7.41-30.66-11.57-45.56-2.02-7.23-5.47-13.62-8.64-20.37-3.49-7.43-6.27-15.18-8.7-23.02s-4.35-15.59-6.13-23.49c-1.41-6.24-5.45-12.9-5.45-19.29,0-12.94,21.25-13.83,30.11-15.35,2.51-.43,4.15-2.76,4.95-4.95,3.53-9.62,3.26-20.48,2.06-30.51s-3.25-19.39-6.66-28.63c-4.52-12.23-7.75-24.74-10.41-37.5-2.58-12.37-5.8-24.54-5.13-37.25s2.75-24.36.72-36.55c-.87-5.21-2.71-10.06-5.18-14.73s-5.23-8.8-5.61-14.05c-.68-9.38,7.24-14.86,12.65-21.39,8.68-10.47,16.88-21.43,24.94-32.38,7.6-10.31,15.6-20.64,20.47-32.57,2.05-5.02,3.63-10.24,5.93-15.15s5.45-8.77,8.73-12.93c5.37-6.79,10.17-14.12,9.49-23.17-.48-6.33-3.69-11.72-8.35-15.92-4.21-3.79-8.48-6.16-12.04-9.58-3.25-3.11-4.57-5.42-3.46-10.47,2.31-10.6,12.41-15.09,17.4-24.09,2.33-4.2,3.55-8.72,6.18-12.8.6-.94.36-.57,1.05-.78,1.8-.56,3.59-1.06,5.35-1.75.97-.38,1.9-.85,2.9-1.16.26-.08,2.27-.53.91-.3,1.32-.23,2.69-.07,4.01-.42,3.93-1.06,7.44-4.74,9.52-8.08,1.67-2.69,2.64-6.18,3.69-9.15s2.49-6.02,2.58-9.08c.3-10.54-10-16.81-18.63-19.85-10.37-3.65-22.22-3.62-32.75-.62-8.86,2.53-15.57,7.92-22.34,13.91-3.65,3.24-7.31,6.44-11.63,8.78-5.26,2.85-11.11,4.49-16.62,6.8-4.54,1.9-8.52,4.1-12.36,7.17-1.43,1.14-2.8,2.35-4.29,3.4-.99.7-3.91,1.55-4.6,2.27.53-.55.67,1.14.39-.22s-.4-2.56-.45-3.94c-.15-4.3.2-8.63.59-12.91.66-7.2,1.92-14.94-.09-22.04-.9-3.18-2.74-6-5.19-8.2-3.29-2.95-7.88-3.75-11.14-6.41-1.33-1.08-1.79-2.75-3.43-3.78-2.03-1.28-4.32-1.48-6.62-1.29-5.09.4-9.07,3.68-12.17,7.5-4.99,6.15-8.74,14.66-17.08,16.88-4.98,1.33-10.54,1.01-15.66,1.22-6.77.29-13.54.56-20.32.61-6.07.04-12.14-.07-18.2-.55-3.27-.26-7.34-.48-9.64-2.97-3.16-3.43-2.02-10.75-1.03-15.68,1.65-8.2,4.46-16.11,6.18-24.29,4.71-22.4,1.27-43.34-7.52-64.23-2.52-5.98-6.42-13.64-5.62-20.3,1.05-8.74,12.76-6.2,18.88-6.07,21.31.46,25.41-22.71,23.55-39.65-1.28-11.68-8.04-19.29-13.76-29.03-4.73-8.06-6.97-17.31-14.99-22.98-10.91-7.72-22.87-3.37-35.01-4.72-11.19-1.25-21.96-4.66-32.87-7.19-4.53-1.05-9.31-1.8-13.64-3.57-3.61-1.47-5.12-3.63-6.43-7.25-3.04-8.34-3.61-17.49-5.37-26.14s-6.29-13.94-12.85-19.81c-8.79-7.87-13.32-19.57-20.47-28.83-15.24-19.7-31.36-41.29-39.7-64.98-3.96-11.24-6.3-22.94-8.76-34.58s-3.87-24.63-6.85-36.67c-2.6-10.5-8.28-18.94-12.96-28.51s-6.4-20.92-6.71-31.89c-.35-12.4-.06-24.79-.6-37.2s-1.67-25.41.56-37.66c.52-2.87,1.35-6.53,3.29-8.29-.31.29.98-.13.09-.07,1.21-.08,1.65.02,2.31.33,6.27,2.89,11.27,8.51,15.12,14.1,5.55,8.05,7.39,17.78,12.67,25.9,5.65,8.71,14.01,11.94,23.41,15.23,3.33,1.17,7.62,2.35,10.15,4.97.74.76.61.42.74,1.99.17,2.01.3,4.04.52,6.05.6,5.33,3.64,10.12,6.44,14.58,3.41,5.42,6.72,10.91,10.29,16.23,6.99,10.4,15.56,19.54,22.49,29.96,3.1,4.66,6.26,9.51,10.41,13.31s8.94,6.74,13.74,9.58,9.51,5.3,13.47,8.97c4.33,4.02,7.44,8.99,10.74,13.83,7.18,10.52,16.12,18.37,26.12,26.16,9.68,7.53,19.51,15.11,30.92,19.83,10.48,4.34,21.71,6.17,32.98,6.91,11.91.78,23.54-.11,35.43-.59,4.42-.18,9.38-.54,13.54,1.26s7.75,5.63,10.78,9.06c5.86,6.61,11.59,14.39,15.7,22.23,4.55,8.67,7.33,18.37,15.23,24.77,8.85,7.16,21.11,8.42,31.63,11.79,4.79,1.53,9.48,3.51,13.13,7.07,3.37,3.28,5.61,7.43,8.14,11.35,5.69,8.79,13.32,17.42,23.96,19.55,5.37,1.07,7.61,4.15,10.32,8.64,3.2,5.3,7.59,8.82,12.62,12.37,8.92,6.28,18.85,10.94,28.64,15.69s20.08,8.98,27.89,16.13,13.87,16.36,23.37,21.18c5.21,2.64,10.8,3.66,16.54,4.35,6.7.81,12.85,1.82,19.25,4.07,12.79,4.51,25.65,8.8,38.39,13.46,5.92,2.16,12.32,4.08,17.95,6.95,2.99,1.52,4.74,3.45,6.12,6.43,2.01,4.35,2.95,10.55,6.68,14.67,5.65,6.25,14.04,5.91,21.68,4.52,8.96-1.64,5.17-15.3-3.77-13.67-1.78.32-3.69.58-5.44.44-1.04-.08-2.04-.75-1.52-.34-.56-.45-.51-.36-1.27-1.83-.28-.54-.64-1.67-1.14-3.15-2.29-6.82-5.02-12.98-11.01-17.34-4.29-3.12-9.66-4.72-14.56-6.61-6.9-2.66-13.87-5.17-20.85-7.63-6.09-2.14-12.19-4.24-18.29-6.35-6.52-2.26-13-5.07-19.83-6.26-5.74-1-11.66-1.02-17.32-2.45-5.33-1.34-9.15-4.33-12.99-8.15-7.98-7.92-14.86-15.67-24.72-21.38-9.49-5.5-19.56-9.89-29.32-14.86-4.83-2.46-9.61-5.06-14.16-8-2.23-1.44-4.41-2.95-6.47-4.62-2.81-2.29-4.25-5.04-6.19-8.06-2.79-4.34-6.47-7.78-11.19-9.96-2.33-1.07-4.53-1.63-7.02-2.14-3.76-.77.08.96-2.25-.94-.93-.76-2.18-1.22-3.18-1.9-7.96-5.44-11.3-15.72-17.65-22.73-7.94-8.78-19.4-11.93-30.44-14.87-5-1.33-10.41-2.46-14.92-5.08-3.95-2.3-6.2-6.27-8.19-10.24-2.17-4.34-3.86-8.92-6.22-13.16-2.19-3.93-4.95-7.62-7.53-11.3-5.72-8.14-11.91-16.4-20.24-22.05-9.3-6.3-20.79-5.37-31.47-4.58-11.58.85-23.41.88-34.96-.53-10.72-1.31-21.14-4.47-30.33-10.22-11.3-7.06-22.62-15.62-32.19-24.92-8.21-7.97-12.7-18.96-21.1-26.8s-19.07-11.12-27.21-18.54c-4.18-3.81-7.03-8.75-10.16-13.41-3.72-5.53-8.09-10.41-12.25-15.59-7.77-9.69-14.57-20.48-20.77-31.23-.69-1.19-1.23-2.51-1.95-3.68-1.65-2.66-.21.64-.47-1.29-.25-1.81-.26-3.66-.46-5.48-.54-4.74-1.6-8.47-5.22-11.81-6.68-6.16-15.82-7.43-23.8-11.11-10.01-4.61-11.3-16.59-15.99-25.47-3.57-6.76-8.47-13.21-14.09-18.4-5.13-4.74-11.76-9.44-19.07-9.34-8.28.12-13.59,6.43-16.11,13.74-3.78,10.96-3.13,23.93-2.79,35.35.39,13.18.94,26.3.94,39.49,0,10.94.33,22,3.05,32.65s9.09,19.95,13.79,30.13c5.01,10.86,5.71,23.26,7.81,34.89s4.55,23.05,7.52,34.34c6.51,24.75,19.95,46.41,34.72,67.06,3.81,5.32,7.82,10.47,11.77,15.68s7.01,10.87,10.46,16.37c2.84,4.54,6.03,8.97,9.96,12.63,2.82,2.62,6.51,4.9,8.26,8.41,3.21,6.43,3.23,16.13,4.73,23.43,1.84,8.93,4.87,18.7,13.42,23.33s18.28,5.67,27.24,8c11.97,3.11,24.77,6.33,37.21,5.51,5.52-.36,11.51-1.37,16.62,1.36,3.76,2.01,5.58,5.91,7.32,9.61,1.98,4.22,3.86,8.4,6.41,12.32,3.08,4.72,7.06,9.26,9.03,14.61,2.64,7.18,2.13,16.68-.06,23.9-.74,2.46-1.74,5.15-4.34,5.99-4.76,1.54-11.05-.64-16.02-.16-9.27.89-17.83,6.67-20.2,15.96-1.96,7.68.48,16.01,3.21,23.19,3.32,8.71,7.17,16.93,9.4,26.05,2.78,11.36,2.97,22.95.73,34.42-2.9,14.86-11.67,32.04-6.68,47.31,2.5,7.66,8.82,12.8,16.65,14.4,12.57,2.58,26.3,1.63,39.04,1.17,10.37-.37,22.51.67,32.08-4.05,8.65-4.26,12.78-12.09,18.57-19.2.55-.67,2.8-3.13,2.98-2.79-.18-.34-3.65-3.32-3.12-1.15.23.94,1.93,2.36,2.67,2.99,3.17,2.7,7.6,3.71,10.82,6.19,1,.77,1.3,2.55,1.38,5.05.12,3.48-.12,6.9-.46,10.35-.79,8.04-2.18,16.93-.05,24.88,2.52,9.41,12.57,12.69,20.96,8.79,3.86-1.79,7.02-4.64,10.33-7.25,4.17-3.28,9.02-5.12,13.95-6.96,5.41-2.01,11.02-4.01,15.87-7.19,4.33-2.84,8.27-6.3,12.13-9.74,6.52-5.8,12.69-9.9,21.57-11.16,5.62-.8,11.48-.44,16.93,1.15,1.85.54,3.68,1.18,5.41,2.05,1.87.95,3.24,2.98,4.86,3.85.33.18.59.43.53-.67.02.38-.28,1.02-.39,1.37-.44,1.4-.91,2.79-1.39,4.18-.9,2.6-1.8,5.84-2.91,7.35s-2.54,2.24-.03,1.34c-1.43.51-3.34.18-4.86.57-3.43.88-7.14,2.37-10.48,3.65-3.65,1.39-6.17,3.81-8.36,6.99-3.3,4.79-4.28,10.77-7.86,15.32-2.88,3.66-6.78,6.39-9.74,9.99-3.39,4.12-5.85,9.14-7.16,14.32-1.69,6.67-1.18,13.72,2.65,19.58,3.22,4.94,8,8.32,12.66,11.79,1.72,1.28,3.03,2.18,5.01,4.18,1.72,1.74,2.52,2.78,2.88,4.75.23,1.27.15,3.82-.84,6.26-1.73,4.27-5.33,7.86-8.14,11.43-7.29,9.27-10.2,19.71-14.91,30.32-5.29,11.94-14.31,22.68-22.1,33.07s-14.77,20.19-23.18,29.3c-6.92,7.5-13.04,14.81-13.06,25.59-.01,5.35,1.35,10.43,3.6,15.25s5.28,9,6.71,14.06c3.26,11.54.64,24.14-.1,35.86-.82,12.87,1.9,24.8,4.44,37.33s5.32,25.28,9.54,37.49c6.04,17.44,13.3,38.69,6.58,57l4.95-4.95c-16.6,2.85-40.61,7.16-40.52,29.02.02,4.76,1.65,9.28,3.22,13.7,1.77,4.98,2.84,10.02,4.06,15.15,2.51,10.54,5.54,20.97,9.42,31.08s9.81,19.55,12.72,30,3.77,21,6.35,31.35c2.3,9.21,5.87,19.58,13.31,25.93,6.31,5.39,14.16,6.47,22.13,5.14s15.46-4.84,23.21-7.13c5.99-1.77,12.75-2.58,17.92-6.34,6.34-4.61,9.76-13.14,11.97-20.38,2.52-8.26,2.49-16.99,2.12-25.54-.12-2.73-.23-5.46-.15-8.19.03-1.1.04-2.34.17-3.38.16-1.24,1.18-3.12,1.04-4.26-.14-1.21.6.74-.78.24.71.25.2-.67,1.2.21,1.27,1.12,1.91,4.1,2.39,5.92,1.74,6.59,2.39,14.31,7.48,19.38,5.62,5.6,15.08,6.67,22.56,5.68,8.97-1.19,15.86-6.31,17.65-15.44.4-2.05.2-7.26,1.37-8.84,1.52-2.05,2.78-.92,3.85-.22,9.05,5.92,16.17-2.3,21.61-8.58,5.94-6.84,14.62-15.91,24.48-12.84l-4.95-4.95c1.56,5.15-.18,7.45-3.24,11.52-3.66,4.86-6.49,9.95-7.12,16.13s1.27,12.14,3.24,18.01c1.48,4.41,3.05,8.76,1.52,13.35-2.54,7.65-9.63,13.37-14.59,19.44-6.17,7.54-11.04,16.07-10.15,26.16l2.08-5.01c-8.36,8.85-16.24,22.69-17.26,34.98-.24,2.89,2.36,6.26,5.2,6.83,10.96,2.23,24.41,3.16,34.44-2.73,1.87-1.1,4.72-2.44,6.22-3.97.66-.67,1.89.07.32-.71.27.14.74.68.91.98,2,3.65,3.44,7.47,3.98,11.65.46,3.5.34,4.84-1.97,7.76-2.84,3.59-6.45,6.34-8.88,10.32-6.11,10.04-5.86,23.77-1.95,34.52s12.4,21.17,12.86,32.7c.24,5.93-2.38,11.53-3.39,17.29s-.8,12.09,2.34,17.49c2.55,4.39,6.27,6.75,10.89,8.53,3.29,1.27,7.28,2.76,9.49,5.69,1.61,2.15,1.07,5.92.95,9.12-.21,5.7-.34,11.39.3,17.07,1.17,10.43,4.96,19.61,10.28,28.59,3.04,5.13,6.61,9.86,8,15.76s.85,12.36.88,18.5.41,12.31,2.38,18.01,5.83,9.81,9.32,14.59c1.52,2.08,2.94,4.37,3.63,6.88.35,1.28.49,2.25.39,2.54-1.15,3.38-5.28,6.52-7.04,10.03-4.24,8.45-6.12,19.93,1.28,27.29,6.8,6.76,19.23,6.55,27.14,1.93,3.64-2.12,6.45-6.66,10.3-8.21,2.84-1.14,4.46,1.29,6.04,3.48,2.37,3.29,4.11,6.99,6.49,10.28,3.39,4.68,7.92,7.54,12.59,10.86,21.85,15.54,43.65,31.43,68.03,42.85,12.29,5.76,24.78,9.51,37.85,12.99,11.08,2.94,21.97,6.06,30.56,14,7.2,6.66,13.19,14.44,21.32,20.09,4.35,3.02,9.32,5.36,14.46,6.69,6.46,1.66,13.22.13,19.57,1.77,11.17,2.89,18.75,14.59,28.35,20.39,10.16,6.14,21.45,7.04,32.93,8.52,20.48,2.64,38.35,14.18,58.7,17.26,9.68,1.46,19.91.96,28.43-4.38,4.33-2.71,8.01-6.38,10.88-10.59s3.99-9.3,6.67-13.6,6.37-3.66,10.88-3.46c6.58.29,12.41-.08,18.88-1.4,13.28-2.72,26.6-5.5,39.55-9.57,9.37-2.95,18.7-7.86,28.51-9.21,8.99-1.23,12.3,3.96,12.45,12.43.18,10.54,2.22,21.61,14.45,23.96,4.83.92,9.48-.06,14.28-.63,3.67-.43,5.67-.43,7.61,1.24,5.87,5.05,9.16,12.28,15.59,16.88,7.55,5.4,19.25,6.19,26.54-.29,6.39-5.69,4.22-17.1,12.77-20.55,4.68-1.89,9.87-2.62,14.66-4.25,5.94-2.03,11.73-4.52,17.45-7.1,21.47-9.7,42.86-21.3,66.87-13.43,12.79,4.19,24.74,11.7,38.34,13.09,6.65.68,13.29-.23,19.95-.12,5.62.1,10.75,1.26,15.98,3.3,5.7,2.22,11.23,4.68,17.1,6.46,6.61,2,13.38,3.54,19.83,6.02,10.48,4.03,18.42,12.62,29.76,14.45,13.65,2.2,27.98.35,41.75.4,7.23.03,14.46.08,21.69.07s14.22-.73,21.08.86c11.41,2.65,21.21,9.61,31.84,14.25,11.75,5.12,24.18,6.75,36.93,6.5s25.73-2.1,38.64-2.57c5.96-.22,12.05-.28,17.96.58s10.94,3.58,16.03,6.64c9.59,5.77,19.47,11.3,31.09,9.91,9.34-1.12,16.42-6.57,21.78-14.05,9.98-13.93,13.86-31.96,25.92-44.6,1.58-1.65,2.98-3.14,4.27-2.37,4.11,2.44,4.53,10,5.29,14.04,1.04,5.49,2.92,10.28,4.76,15.53,2.18,6.19,3.36,12.68,5.39,18.91,3.84,11.79,9.64,22.26,17.82,31.59,6.46,7.37,12.21,15.61,15.67,24.86,1.6,4.29,2.96,8.88,2.76,13.51-.08,1.73-.34,3.41-1.01,5.02-.33.82-1.07,1.6-1.32,2.41.08-.25,1.54-.6.01-.15,1.65-.48.22-.23-.15-.42-1.6-.83-3.1-1.8-4.57-2.84-3.16-2.23-6.12-4.79-9.49-6.71-7.53-4.3-16.06-4.08-22.81,1.71-6.34,5.44-8.51,13.95-9.16,21.96-.64,7.89.34,16.31,2.6,23.89,2.9,9.74,9.3,17.98,12.66,27.52,1.78,5.07,2.6,10.2,1.36,15.5-1.17,5.01-5.41,8.01-8.02,12.26-3.14,5.1-3.27,11.36-5.99,16.6-2.71,5.22-7.49,9.04-11.18,13.53-3.99,4.85-6.91,10.17-8.39,16.31s-1.49,13.1-4.54,18.89c-2.58,4.9-6.48,8.97-9.12,13.85-3.51,6.47-6.7,13.14-9.95,19.74-6.19,12.57-12.69,25.51-16.98,38.88-4.2,13.08-3.67,27.19,1.14,40.02,2.35,6.26,5.65,11.96,8.76,17.85,3.28,6.22,4.39,12.49,5.4,19.4,1.53,10.45,4.94,22.74,16.8,25.17,9.14,1.87,16.76-4,25.5-4.75,8.5-.73,16.73,10.06,22.37,15.07,8.42,7.48,18.33,11.93,28.82,15.87,11.53,4.33,21.66,2.11,31.98-4.09,11.36-6.82,22.4-12.02,35.84-12.47s27.98,1.11,41.87-.17c4.47-.41,10.2-1.67,14.51.01,4.4,1.72,7.61,6.24,11.16,9.16,9.76,8.04,21.27,7.98,33.27,6.54,5.76-.69,11.68-1.69,17.49-1.19,6.22.55,11.9,3.59,17.26,6.58,11.16,6.24,22.58,14.9,35.86,15.23,6.17.16,12.36-1.67,18.48-.36s11.1,4.16,17.08,5.01c13.35,1.92,26.29-2.45,39.35-4.37,5.22-.77,10.08-.94,15.13.75,4.59,1.54,8.8,4.11,13.27,5.97,10.26,4.28,21.55,4.25,31.85.02,10.66-4.38,18.57-12.68,24.66-22.28.8-1.25,1.52-2.56,2.36-3.78-.75,1.1.49-.48.63-.59-.97.79,1.53-.93,1.32-.81,5.53-3.17,11.27-4.61,17.59-5.27,5.79-.6,11.7-.81,17.38-2.19,6.27-1.52,11.89-4.6,16.99-8.48,4.28-3.27,8.39-7.21,13.59-8.96,5.87-1.97,12.37-2.08,18.49-2.06,12.3.05,24.58,1.92,36.87.91,4.81-.39,10.13-1.32,14.24,1.86,4.48,3.47,7.25,9.04,11.35,12.95,8.68,8.26,20.29,12.13,32.13,12.35s23.18-2.03,31.93-9.62c7.37-6.39,11.65-15.39,20.46-20.19,10.69-5.83,23.36-4.65,34.54-8.93,11.67-4.46,21.81-12.09,32.93-17.68,10.2-5.12,18.84-11.12,30.66-11.19,12.39-.07,24.95-1.1,36.68-5.38,11.88-4.34,21.03-11.89,30.14-20.43,4.05-3.79,8.09-7.64,12.82-10.59,5.91-3.68,12.63-6.14,18.81-9.35,12.76-6.62,25.19-13.8,38.07-20.19,10.26-5.09,19.44-12.88,26.94-21.49,3.51-4.02,6.9-8.37,9.45-13.08,2.8-5.18,4.06-10.77,5.87-16.32,3.81-11.67,15.52-13.47,24.47-20.03,4.9-3.59,8.71-8.37,12.47-13.1s7.34-9.83,8.76-15.81c2.93-12.31-4.35-23.13-12.43-31.67-6.69-7.08-16.78-14.03-18-24.43-1.08-9.16,3.16-20.14,10.43-25.91,10-7.95,23.47-6.59,35.42-6.85,12.47-.28,24.37-2.71,34.6-10.19,9.35-6.84,17.64-16.31,23.96-26.01,7.22-11.09,5.23-23.5,1.98-35.53-2.08-7.7-5.8-18.99,1.35-25.45l.88-.52c-1.02.21-.95.28.2.19-.08-.06-.45.17-.53-.03.23.6,1.33,1.98,1.82,2.98,1.68,3.43,2.64,7.21,4.59,10.5,4.18,7.04,11.62,7.99,19.14,8.47,8.67.55,17.5.16,26.13-.8,3.02-.34,6.52-.45,9.42-1.48,5.73-2.02,6.16-9.15,6.78-14.34,1.06-8.83.84-20.17-5.94-26.88-7.04-6.97-16.66-4.68-25.2-2.8-1.02.22,0-.33.19.05-1.09-2.12-1.4-4.91-1.77-7.24-1.1-6.94-1.08-14.22-.16-21.19,1.75-13.22,6.65-25.94,12.23-37.96,2.61-5.63,6.1-10.98,8.28-16.79,1.16-3.08,1.84-6.29,1.7-9.59-.09-2.26-1.52-5.8-.39-7.87,1.42-2.61,7.79-3.88,10.26-4.55,4.46-1.21,9.15-2.32,13.75-2.78,10.71-1.08,21.57-.61,30.31-7.97,4.49-3.78,7.73-8.91,9.43-14.52s1.19-11.04,2.53-16.42c2.89-11.67,18.09-5.83,26.48-6.23,11.19-.53,17.11-7.28,22.03-16.63,5.05-9.6,7.45-19.56,10.33-29.93,3.47-12.49,10.48-23.5,14.78-35.7,3.65-10.35,5.37-21.16,1.27-31.65-3.59-9.16-10.08-16.56-16.47-23.88-5.04-5.78-11.2-12.32-12.78-19.63-1.7-7.86-1.69-16.46-1.13-24.45.11-1.63.26-3.24.61-4.83.32-1.45.51-2,.61-2.1,2.77-3.07,8.66-3.68,12.33-5.21,11.31-4.71,16.93-16.31,26.98-22.7,9.24-5.86,20.03-9.9,26.08-19.61,2.38-3.83,3.53-8.18,4.58-12.51.87-3.59,1.35-6.44,5.07-7.84,1.44-.54,3.63-.78,4.57-.67,1,.12.89.18,1.49.78,1.47,1.46,2.75,4.07,4.19,6.56,3.56,6.15,9.3,10.41,16.62,7.7,8.89-3.29,11.59-14.42,13.66-22.63,2.58-10.23,6.05-19.76,6.76-30.42.38-5.7-.18-11.65,1.23-17.23,1.17-4.62,3.56-8.75,5.42-13.09,4.91-11.45,6.13-23.7,5.21-36.06-.91-12.23-3.29-24.46-6.39-36.32-1.27-4.85-3.16-9.49-4.62-14.28-1.37-4.49-3.32-10.53-1.24-15.14,1.69-3.73,6.42-5.77,9.82-7.54,4.44-2.3,9.11-4.24,13.16-7.2,7.58-5.55,13.3-13.24,16.55-22.04,5.84-15.82.47-34.69-15.32-42.23-4.42-2.11-8.97-3.21-13.81-3.78-3.27-.39-8.39-.93-10.41-2.44s-3.18-4.05-4.74-6.69c-2.86-4.82-6.1-9.29-9.65-13.63-3.73-4.57-7.82-8.86-11.17-13.72-3.97-5.77-7.13-12.18-10.29-18.43-6.08-12.06-11.39-24.78-13.48-38.2-1.49-9.56-.96-19.58-1.63-29.25s-1.39-19.66-.77-29.47c.49-7.72,1.71-15.5,7.95-20.59,8.45-6.89,18.69-10.55,24.07-20.76,5.45-10.37,6.42-22.92,6.24-34.44-.18-11.43-1.55-22.91-6.81-33.21-4.95-9.67-13.07-17.49-16.52-27.94-3.74-11.35-3.1-23.34-3.23-35.12-.06-5.27-.11-10.56,1.25-15.68,1.51-5.68,4.96-10.56,7.49-15.81,5.72-11.87,8.38-23.73,5.88-36.83-.46-2.4-2.72-4.3-4.95-4.95-10.66-3.11-22.76-2.75-33.36.48-5.05,1.54-9.84,3.81-13.85,7.28-4.32,3.73-7.49,7.81-12.98,9.94-1.34.52-.69.14.12.25-.71-.09-1.41-.42-2.08-.64-1.71-.55-3.37-1.11-5.11-1.53-6.4-1.52-13.38-2.77-19.91-1.29-4.85,1.1-9.04,4.2-13.86,5.3-2.8.64-3.25.14-4.76-2.56-3.77-6.71-4.24-15.51-5.36-22.97-1.3-8.66-3.96-16.43-9.66-23.26-12.43-14.88-32.81-19.27-49.89-26.46-5.88-2.48-11.43-5.52-17.52-7.53-7.01-2.32-14.3-3.65-21.33-5.91-1.74-.56-4.58-2.43-6.37-2.67.64.09.48.16.99,1.05-.39-.67-1.06-1.47-1.67-2.03-3.55-3.3-9.15-2.88-13.64-2.98l5.01,2.08c-.11-.08-.21-.16-.3-.26l-3.13,11.85c4.49-1.64,6.28-5.63,4.94-10.19-1.66-5.63-5.68-9.25-10.97-11.32-7.15-2.8-17.71-3.21-22.84-9.1-1.17-1.34-1.84-4.21-2.05-7.22-.33-4.85-.54-10.11.37-14.91,1.55-8.16,9.04-13.26,15.71-17.36,8.7-5.35,18.8-7.94,26.71-14.65,7.15-6.06,8.68-13.62,9.25-22.48s.82-18.03-1-26.61c-.76-3.59-2.43-6.46-5.26-8.84-4.15-3.49-10.19-4.9-13.2-9.57-2.68-4.16-2.14-9.56-2.49-14.31-.42-5.71-1.38-12.15.26-17.74s6.39-6.36,11.57-7.22c7.17-1.19,14.01-1.94,20.3-5.92,2.91-1.83,3.79-4.77,3.26-8-1.13-6.93-2.42-13.83-3.93-20.69-1.3-5.91-3.13-11.16-7.81-15.27-3.66-3.21-7.45-5.09-9.03-9.97-2.01-6.2-2.26-12.84-3.55-19.2s-4.55-11.73-7.87-17.32c-1.53-2.57-2.88-5.13-3.21-8.15-.39-3.63.27-7.35.31-10.99.06-6.92-1.7-14.02-3.01-20.79s-2.42-13.38-5.66-19.33c-2.9-5.33-7.5-9.63-9.93-15.24s-1.74-12.05-1.66-18.07c.19-14.74.03-29.64-3.97-43.94-3.34-11.91-8.54-22.5-17.01-31.59-3.17-3.41-7.16-6.59-8.62-11.16-1.87-5.85-1.56-12.29-3.21-18.25-3.91-14.17-12.52-26.28-19.61-38.96-2.49-4.45-5.61-10.85-1.1-15.16,2.99-2.85,8.2-2.33,11.7-.81,3.94,1.71,9.31.67,10.41-4.24,2.69-11.95,1.86-24.34,1.14-36.47-.31-5.28-.66-10.53-2.3-15.59-1.94-5.96-5.02-11.43-7.84-16.99-5.41-10.66-7.49-22.32-11.54-33.48s-10.8-21.18-20.17-29.11c-8.36-7.08-18.07-14.74-28.05-19.36-7.74-3.58-14.14-2.29-21.22,1.99-8.12,4.92-16.2,9.47-25.87,10.19-4.08.31-8.32.29-12.26-.94-4.24-1.33-6.85-4.35-9.44-7.84-6.47-8.73-12.05-15.45-23.46-17.14-6.9-1.02-13.38-2.33-20.02-4.53-7.26-2.41-14.4-5.01-21.92-6.49l4.95,4.95c-2.09-7.59.23-15.59-1.96-23.09-2.83-9.68-13.02-11.8-21.85-12.21-6.68-.31-13.38.34-20.05-.16-7.42-.55-13.82-3.64-20.24-7.18-12.15-6.7-23.63-13.32-37.48-15.83-14.32-2.6-29.52-3.18-43.91-.89-13.54,2.15-26.41,7.03-39.65,10.44-12.57,3.24-25.55,3.05-37.94,7-10.77,3.44-21.79,8.78-33.3,8.92-4.58.06-9.99-.76-13.69-3.7-3.4-2.71-5.2-7.68-6.54-11.65-3.07-9.05-4.42-18.4-5.11-27.88-.92-12.59-3.13-23.38-11.26-33.44-5.9-7.3-16.57-13.24-18.39-23.05s1.52-19.5.92-29.06-3.82-17.53-12.71-21.57c-14.1-6.41-23.67,5.12-29.25,16.68-2.98,6.16-5.45,12.55-8.68,18.58-1.04,1.94-3.23,5.47-3.78,6.15-.85,1.05-1.78,2.06-2.81,2.94.3-.26-2.59,1.57-1.68,1.11-1.98,1-3.46.84-6.29-.27-4.58-1.8-6.26-6.22-8.83-10.04-2.81-4.17-6.14-7.77-10.64-10.13-5.09-2.68-11.07-3.85-15.72-7.35-7.67-5.78-13.13-13.26-22.87-15.82-5.68-1.5-11.54-1.17-17.31-1.98-7.04-.99-13.85-3.17-20.9-4.13-13.43-1.83-27.07,2.04-40.41-.51-6.31-1.21-12.47-3.08-18.82-4.12-7.42-1.22-14.95-.85-22.31-2.37-6.71-1.38-13.26-3.03-20.08-3.9-6.37-.81-12.63-2.11-18.78-3.98-12.86-3.91-25.1-10.22-35.7-18.49-9.45-7.38-16.47-16.1-22.88-26.12s-12.45-19.78-21.58-27.11c-4.93-3.95-10.53-7.41-16.69-9.03s-13.14-.84-19.4-2.77c-5.88-1.81-10.51-6.33-16.45-8.19-6.35-1.99-12.85-1.05-19.36-1.21-11.16-.28-12.9-9.49-16.86-17.81-5.15-10.83-16.36-13.61-27.53-13.68-6.6-.04-13.19.73-19.79.81-8.42.1-16.84.16-25.26.29-15.65.25-32.33,1.66-47.83-.93-6.3-1.05-12.46-2.77-18.78-3.71-7.29-1.08-13.95-.11-21.2-.14-5.89-.02-10.66-4-16.23-5.44-7.58-1.95-15.87-2.47-23.64-3.29-14.7-1.56-29.58-2.36-44.36-2.06-14.02.29-27.98,2.18-42.01,1.87-10.78-.24-23.13-1.99-33.1-6.33-4.08-1.78-7.67-4.5-9.62-8.59-2.4-5.04-3.28-10.75-5.6-15.87-5.18-11.42-16.16-17.78-28.42-19.01-10.24-1.03-19.71,3.27-26.8,10.5s-12.82,17.35-17.43,26.73-5.5,22.3-13.46,29.46c-9.01,8.1-23.83,9.64-35.04,12.94-7.26,2.14-14.36,4.77-21.47,7.38-6.42,2.35-13.35,4.03-19.47,7.11-5.69,2.87-9.4,7.57-13.85,11.93-4.67,4.59-11.36,5.52-17.63,6.27-11.46,1.36-22.12,3.18-33.02,7.03-9.81,3.47-21.76,8.66-23.89,20.08-1.03,5.54,1.21,11.93-.91,17.17-2.48,6.11-7.71,11.42-11.09,17.09-3.81,6.41-7.23,13.03-10.74,19.6s-7.17,11.27-12.55,16.25c-4.22,3.89-8.35,7.89-11.37,12.82-3.55,5.78-5.48,11.19-11.24,15.25-5.16,3.63-10.93,6.31-16.37,9.46s-10.35,7.43-15.62,11.11c-9.62,6.73-20.09,12.11-29.95,18.45s-20.4,14.38-27.26,24.71c-7.79,11.72-5.85,25.59-5.71,38.87.07,6.86-.95,13.74-.42,20.6.58,7.47,4.38,13.58,5.76,20.77.67,3.48.67,6.58-1.87,8.94-2.94,2.75-6.95,4.58-9.83,7.66-9.01,9.67-9.79,23.98-12.84,36.17-1.57,6.29-4.1,12.22-5.36,18.6-1.55,7.88-2.31,15.84-4.56,23.59-2.08,7.17-4.07,14.32-5.31,21.7s-1.72,14.99-2.7,22.47c-2.06,15.83-5.28,31.49-7.9,47.24-1.04,6.24-1.88,12.39-1.99,18.72-.07,4.5.26,9.2-1.05,13.57-1.2,4-4.12,8.4-8.07,9.89-5.43,2.06-9.6,4.27-10.95,10.58-1.01,4.69.25,9.62.64,14.32.54,6.66.62,13.49.78,20.17.17,7.1.09,14.17-2.01,21.01s-5.59,12.57-8.83,18.64c-9.75,18.31-10.78,38.73-17.92,57.92-2.79,7.49-7.46,15.92-15.18,19.26-6.91,3-16.01,1.05-23.26.51-8.16-.6-17-.75-24.3,3.53-10.26,6.02-12.47,18.53-12.84,29.45-.22,6.52.33,13.16-1.03,19.58-1.44,6.78-3.79,14.18-6.96,20.35-4.34,8.43-14.99,21.88-25.9,20.5-3.91-.5-5.51-2.72-7.81-5.93-3-4.17-5.86-8.65-9.81-12-8.95-7.58-19.11-3.68-28.98-.23-11.7,4.1-23.78,7.01-35.28,11.69-6.64,2.7-13.08,6.11-19.88,8.38s-14.24,3.3-21.51,4.08c-6.28.67-12.57,1.24-18.8,2.26-7.49,1.23-14.23,3.66-21.24,6.46-13.95,5.56-28.28,10.08-42.42,15.13-12.87,4.6-25.01,10.28-37.42,15.92s-27.31,3.77-40.88,3.71c-9.12-.04-9.13,14.14,0,14.18Z"/>
  </g>
</svg>